.
 
http://www.scenetime.com    -   SceneTime [ We been having it ] !!!


How come you press harder on a remote control when you know the battery is dead? so you better seed to get speed ;)

        Seed back for speed


...................................NFO:.................................................*******************************************************************************
                         Mr Poppers Penguins 2011 CAM SiNiSTERR
*******************************************************************************

-------------------------------------------------------------------------------
                              General Information
-------------------------------------------------------------------------------
[IMG]http://i1227.photobucket.com/albums/ee427/boobyblue/MV5BMTcwMDI4NjEyOF5BMl5BanBnXkFtZTcwNzg5MzEwNQ_V1_SY317_.jpg[/IMG]
General
Complete name                    : Mr. Poppers Penguins 2011 CAM SiNiSTER.mp4
Format                           : MPEG-4
Format profile                   : Base Media / Version 2
Codec ID                         : mp42
File size                        : 872 MiB
Duration                         : 1h 27mn
Overall bit rate                 : 1 397 Kbps
Writing application              : TMPGEnc Video Mastering Works 5 Version. 5.0.5.32

Video
ID                               : 2
Format                           : AVC
Format/Info                      : Advanced Video Codec
Format profile                   : High@L3.0
Format settings, CABAC           : Yes
Format settings, ReFrames        : 3 frames
Codec ID                         : avc1
Codec ID/Info                    : Advanced Video Coding
Duration                         : 1h 27mn
Bit rate mode                    : Constant
Bit rate                         : 1 300 Kbps / 1 300 Kbps
Width                            : 720 pixels
Height                           : 348 pixels
Display aspect ratio             : 2.069
Frame rate mode                  : Constant
Frame rate                       : 25.000 fps
Standard                         : NTSC
Color space                      : YUV
Chroma subsampling               : 4:2:0
Bit depth                        : 8 bits
Scan type                        : Progressive
Bits/(Pixel*Frame)               : 0.208
Stream size                      : 790 MiB (91%)
Writing library                  : x264 core 112
Encoding settings                : cabac=1 / ref=3 / deblock=1:0:0 / analyse=0x3:0x113 / me=hex / subme=7 / psy=1 / psy_rd=1.00:0.00 / mixed_ref=1 / me_range=16 / chroma_me=1 / trellis=1 / 8x8dct=1 / cqm=2 / deadzone=21,11 / fast_pskip=1 / chroma_qp_offset=-2 / threads=3 / sliced_threads=0 / slices=1 / nr=0 / decimate=1 / interlaced=0 / constrained_intra=0 / bframes=3 / b_pyramid=0 / b_adapt=1 / b_bias=0 / direct=1 / weightb=1 / open_gop=0 / weightp=2 / keyint=250 / keyint_min=25 / scenecut=40 / intra_refresh=0 / rc_lookahead=40 / rc=cbr / mbtree=1 / bitrate=1300 / ratetol=1.0 / qcomp=0.60 / qpmin=3 / qpmax=51 / qpstep=4 / vbv_maxrate=1300 / vbv_bufsize=1294 / nal_hrd=cbr / frame-packing=0 / ip_ratio=1.40 / aq=1:1.00
Color primaries                  : BT.470-6 System B, BT.470-6 System G, BT.601-6 625, BT.1358 625, BT.1700 625 PAL, BT.1700 625 SECAM
Transfer characteristics         : BT.470-6 System B, BT.470-6 System G
Matrix coefficients              : BT.470-6 System B, BT.470-6 System G, BT.601-6 625, BT.1358 625, BT.1700 625 PAL, BT.1700 625 SECAM, IEC 61966-2-4 601

Audio
ID                               : 1
Format                           : AAC
Format/Info                      : Advanced Audio Codec
Format profile                   : LC
Codec ID                         : 40
Duration                         : 1h 27mn
Bit rate mode                    : Variable
Bit rate                         : 128 Kbps
Maximum bit rate                 : 529.2 Kbps
Channel(s)                       : 2 channels
Channel positions                : Front: L R
Sampling rate                    : 44.1 KHz
Compression mode                 : Lossy
Stream size                      : 79.9 MiB (9%)




Video Source: Russian			
Audio Source: Imagine
Greets:
DarkScene,HDScene,Noir,CrEwSaDe EnCoDeRs,blackjesus,ViSiON,HDLiTE,EP1C,IMAGiNE,FLAWL3SS,Rx,ELEKTRI4KA,
CiNEDUB,,ETRG,BDK,SAFCuk009..... and everybody else we respect.. u 
know who u are
-------------------------------------------------------------------------------
                               Post Information
-------------------------------------------------------------------------------
Encoded by...........: BoobyBlue
 
Have sumthing to offer..looking for suppliers... cammers,cams,screeners, audio
supplier.. and any pre retail DVD/BR any RC...if u can provide any email us at
sinister@hushmail.me
-------------------------------------------------------------------------------
                                 Release Notes
-------------------------------------------------------------------------------
Well first off i fixed the aspect ratio ran it through sime video denoise and added some color and a few other things came out nice and smooth.



-------------------------------------------------------------------------------
                                 ScreenShots
-------------------------------------------------------------------------------
[IMG]http://i1227.photobucket.com/albums/ee427/boobyblue/1-8.jpg[/IMG]
[IMG]http://i1227.photobucket.com/albums/ee427/boobyblue/2-8.jpg[/IMG]
[IMG]http://i1227.photobucket.com/albums/ee427/boobyblue/3-6.jpg[/IMG]
[IMG]http://i1227.photobucket.com/albums/ee427/boobyblue/4-6.png[/IMG]
[IMG]http://i1227.photobucket.com/albums/ee427/boobyblue/5-6.png[/IMG]


-------------------------------------------------------------------------------

[img]http://leetleech.org/images/33506450373550172140.gif[/img]


-------------------------------------------------------------------------------
Generated with Cool NFO Creator - http://fly.to/coolbeans
-------------------------------------------------------------------------------